<svg width="203" height="199" viewBox="0 0 203 199" fill="none" xmlns="http://www.w3.org/2000/svg">
<path d="M121.854 67.6223C121.833 67.8225 121.808 68.0209 121.799 68.2212C121.728 69.9609 122.065 71.7152 122.801 73.3359L98.8731 95.375L74.9453 117.413C73.2113 116.447 71.2703 115.977 69.3293 116.001L43.5379 40.7752C44.6284 40.1907 45.6608 39.4805 46.5965 38.6184C47.5312 37.7582 48.3246 36.7867 48.9971 35.7466L121.854 67.6223Z" fill="#47BCC4"/>
<path d="M21.7188 126.343L58.5253 129.73C58.955 131.616 59.8597 133.37 61.2056 134.83C62.6222 136.368 64.3745 137.41 66.2458 137.967L67.0141 167.421L67.347 180.21C66.2739 180.642 65.2531 181.235 64.3145 181.995L18.2596 131.993C19.8445 130.375 21.0221 128.452 21.7188 126.343Z" fill="#47BCC4"/>
<path d="M36.005 42.5049C36.245 42.5146 36.482 42.5011 36.7201 42.5001L62.6943 118.259C62.4079 118.476 62.1273 118.705 61.8574 118.955C60.6837 120.036 59.7799 121.33 59.1645 122.752L22.2873 119.359C21.8364 116.521 20.565 113.876 18.5737 111.715C16.6752 109.653 14.2814 108.221 11.6427 107.499L32.9774 42.0608C33.9585 42.3085 34.9706 42.4633 36.005 42.5049Z" fill="#47BCC4"/>
<path d="M80.6276 128.416C80.8385 126.439 80.5327 124.417 79.6929 122.568L127.548 78.4887C129.322 79.4766 131.312 79.9478 133.3 79.8994L160.991 157.604C159.959 158.171 158.983 158.853 158.095 159.669C157.206 160.488 156.448 161.405 155.798 162.386L80.6276 128.416Z" fill="#47BCC4"/>
<path d="M120.275 18.0398C122.466 20.4182 125.315 21.9625 128.44 22.5334L128.47 23.7999L129.27 58.0946C127.878 58.5852 126.561 59.3574 125.409 60.4188C125.138 60.6675 124.887 60.9278 124.647 61.1958L99.6725 50.2687L51.2731 29.0947C51.2944 28.8576 51.3273 28.6225 51.3369 28.3825C51.3786 27.381 51.3176 26.3902 51.1628 25.4216L116.547 10.3116C116.987 13.1815 118.264 15.8569 120.275 18.0398Z" fill="#47BCC4"/>
<path d="M185.207 66.7787C183.84 68.0395 182.753 69.5209 181.959 71.1426L144.026 66.5C143.641 64.5358 142.738 62.648 141.285 61.0708C139.877 59.542 138.136 58.5047 136.276 57.9445L135.452 22.6106L135.44 22.1336C137.522 21.4969 139.454 20.4122 141.102 18.895C141.108 18.8902 141.113 18.8834 141.118 18.8786L185.224 66.7651C185.219 66.77 185.213 66.7739 185.207 66.7787Z" fill="#47BCC4"/>
<path d="M168.685 155.784C168.383 155.771 168.083 155.786 167.782 155.792L139.902 77.5551C140.151 77.3616 140.397 77.1642 140.633 76.9465C141.736 75.9305 142.585 74.7394 143.185 73.4574L180.474 78.0206C180.565 81.5852 181.913 84.9592 184.351 87.6066C186.184 89.5969 188.48 90.9971 191.009 91.7412L171.444 156.162C170.547 155.954 169.625 155.822 168.685 155.784Z" fill="#47BCC4"/>
<path d="M80.5897 183.18C78.8606 181.303 76.6632 180.115 74.34 179.614L73.2505 137.799C74.6322 137.308 75.9385 136.537 77.0832 135.483C77.3193 135.265 77.536 135.036 77.7489 134.804L153.434 169.007C153.404 169.305 153.366 169.603 153.352 169.906C153.313 170.879 153.369 171.841 153.514 172.783L83.3919 188.377C82.9159 186.457 81.9666 184.675 80.5897 183.18Z" fill="#47BCC4"/>
<path d="M13.4204 116.462C14.867 118.032 15.5404 120.041 15.4592 122.018C15.3779 123.995 14.5419 125.941 12.9724 127.388C9.83062 130.282 4.93843 130.081 2.0453 126.94C0.598734 125.368 -0.0747166 123.361 0.00656193 121.383C0.0878404 119.405 0.92288 117.459 2.49426 116.013C5.6351 113.118 10.5273 113.32 13.4204 116.462Z" fill="#47BCC4"/>
<path d="M44.3364 28.0945C44.2561 30.0723 43.4201 32.0191 41.8487 33.4657C38.7079 36.3588 33.8157 36.1575 30.9226 33.0167C29.476 31.4453 28.8026 29.4376 28.8839 27.4598C28.9651 25.483 29.8002 23.5362 31.3716 22.0896C34.5124 19.1965 39.4046 19.3968 42.2977 22.5386C43.7452 24.109 44.4177 26.1177 44.3364 28.0945Z" fill="#47BCC4"/>
<path d="M136.355 13.7412C133.214 16.6343 128.321 16.4341 125.428 13.2922C123.982 11.7218 123.309 9.71406 123.389 7.73628C123.471 5.75851 124.307 3.81266 125.877 2.3661C129.018 -0.527999 133.91 -0.326738 136.804 2.81506C138.251 4.38548 138.923 6.39422 138.842 8.37103C138.761 10.3488 137.926 12.2947 136.355 13.7412Z" fill="#47BCC4"/>
<path d="M189.505 82.8594C188.059 81.289 187.385 79.2802 187.467 77.3034C187.548 75.3256 188.384 73.3798 189.954 71.9323C193.095 69.0391 197.988 69.2404 200.882 72.3812C202.328 73.9516 203.001 75.9604 202.919 77.9382C202.838 79.915 202.003 81.8618 200.433 83.3084C197.291 86.2015 192.399 86.0012 189.505 82.8594Z" fill="#47BCC4"/>
<path d="M160.354 170.194C160.435 168.217 161.27 166.27 162.841 164.823C165.982 161.93 170.874 162.131 173.767 165.272C175.215 166.843 175.888 168.851 175.807 170.828C175.726 172.805 174.889 174.752 173.318 176.2C170.178 179.092 165.286 178.891 162.392 175.75C160.946 174.179 160.272 172.171 160.354 170.194Z" fill="#47BCC4"/>
<path d="M66.571 185.579C69.7128 182.686 74.605 182.887 77.4971 186.028C78.9447 187.599 79.6172 189.607 79.5359 191.585C79.4546 193.562 78.6196 195.509 77.0491 196.954C73.9073 199.848 69.0151 199.647 66.122 196.506C64.6755 194.936 64.002 192.927 64.0833 190.95C64.1646 188.972 64.9996 187.026 66.571 185.579Z" fill="#47BCC4"/>
</svg>
